# Blender v2.79 (sub 0) OBJ File: 'recup objets.blend'
# www.blender.org
# mtllib ligneProd.mtl
o Cube.14139_Cube.14157
v 2.199177 1.478115 -7.757080
v 2.199177 1.478115 -10.080057
v 0.191802 1.308032 -10.140199
v 0.191802 2.069753 -10.140199
v 1.681553 1.308032 -10.140201
v 1.681553 2.069753 -10.140201
v 0.065214 -0.100261 -7.577378
v 0.065214 2.352668 -7.577378
v 0.065214 -0.100261 -10.259763
v 0.065214 2.352668 -10.259763
v 2.845612 -0.100261 -7.577378
v 2.195926 2.352668 -7.577378
v 2.845612 -0.100261 -10.259763
v 2.195926 2.352668 -10.259763
v 0.065214 1.473421 -7.577378
v 0.065214 1.473421 -10.259763
v 2.773546 1.473421 -10.259763
v 2.773546 1.473421 -7.577378
v 0.191802 2.069753 -7.577378
v 0.191802 1.308032 -7.577378
v 0.191802 1.473421 -7.577378
v 1.681552 1.473421 -7.577378
v 1.681553 2.069753 -7.577378
v 1.681553 1.308032 -7.577378
v 2.199177 2.347718 -7.757080
v 2.770462 1.478115 -7.757081
v 2.199177 2.347718 -10.080057
v 2.770462 1.478115 -10.080057
v 1.679375 1.160377 9.432990
v 1.679375 1.308270 9.432990
v 0.194790 1.160377 9.432990
v 0.194790 1.308270 9.432990
v 1.679375 1.160377 -7.589285
v 1.679375 1.308270 -7.589285
v 0.194790 1.160377 -7.589285
v 0.194790 1.308270 -7.589285
v 1.589345 -0.116956 7.430745
v 1.589345 1.170002 7.430745
v 0.302387 -0.116956 7.430745
v 0.302387 1.170002 7.430745
v 0.302387 -0.116956 7.246335
v 0.302387 1.170002 7.246335
v 1.589345 1.170002 7.246335
v 1.589345 -0.116956 7.246335
v 1.473103 -0.116956 7.246335
v 1.473103 -0.116956 7.430745
v 1.473103 1.061880 7.246335
v 1.473103 1.061880 7.430745
v 0.418639 1.061880 7.246335
v 0.418639 1.061880 7.430745
v 0.418639 -0.116956 7.246335
v 0.418639 -0.116956 7.430745
v 1.589345 -0.116956 2.735111
v 1.589345 1.170002 2.735111
v 0.302387 -0.116956 2.735111
v 0.302387 1.170002 2.735111
v 0.302387 -0.116956 2.550701
v 0.302387 1.170002 2.550701
v 1.589345 1.170002 2.550701
v 1.589345 -0.116956 2.550701
v 1.473103 -0.116956 2.550701
v 1.473103 -0.116956 2.735111
v 1.473103 1.061880 2.550701
v 1.473103 1.061880 2.735111
v 0.418639 1.061880 2.550701
v 0.418639 1.061880 2.735111
v 0.418639 -0.116956 2.550701
v 0.418639 -0.116956 2.735111
v 1.589345 -0.116956 -2.170444
v 1.589345 1.170002 -2.170444
v 0.302387 -0.116956 -2.170444
v 0.302387 1.170002 -2.170444
v 0.302387 -0.116956 -2.354855
v 0.302387 1.170002 -2.354855
v 1.589345 1.170002 -2.354855
v 1.589345 -0.116956 -2.354855
v 1.473103 -0.116956 -2.354855
v 1.473103 -0.116956 -2.170444
v 1.473103 1.061880 -2.354855
v 1.473103 1.061880 -2.170444
v 0.418639 1.061880 -2.354855
v 0.418639 1.061880 -2.170444
v 0.418639 -0.116956 -2.354855
v 0.418639 -0.116956 -2.170444
vn 0.0000 1.0000 0.0000
vn 0.0000 0.0000 1.0000
vn 1.0000 0.0000 0.0000
vn -1.0000 0.0000 -0.0000
vn 0.0000 -1.0000 -0.0000
vn 0.0000 0.0000 -1.0000
vn 0.8358 0.5491 0.0000
vn 0.9990 0.0457 0.0000
usemtl batiment.038
s off
f 2//1 1//1 26//1 28//1
f 2//2 28//2 27//2
f 1//3 2//3 27//3 25//3
f 3//2 5//2 6//2 4//2
f 5//4 24//4 22//4 23//4 6//4
f 3//1 20//1 24//1 5//1
f 6//5 23//5 19//5 4//5
f 15//4 8//4 10//4 16//4
f 16//6 10//6 14//6 17//6
f 17//7 28//7 26//7 25//7 12//7 18//7
f 18//2 12//2 8//2 15//2 21//2 19//2 23//2 22//2
f 9//5 13//5 11//5 7//5
f 14//1 10//1 8//1 12//1
f 11//2 18//2 22//2 24//2 20//2 21//2 15//2 7//2
f 13//8 17//8 18//8 11//8
f 9//6 16//6 17//6 13//6
f 7//4 15//4 16//4 9//4
f 20//3 3//3 4//3 19//3 21//3
f 26//6 1//6 25//6
f 12//7 25//7 27//7 28//7 17//7 14//7
f 29//2 30//2 32//2 31//2
f 31//4 32//4 36//4 35//4
f 35//6 36//6 34//6 33//6
f 33//3 34//3 30//3 29//3
f 31//5 35//5 33//5 29//5
f 36//1 32//1 30//1 34//1
f 37//2 38//2 40//2 39//2 52//2 50//2 48//2 46//2
f 39//4 40//4 42//4 41//4
f 39//5 41//5 51//5 52//5
f 43//1 42//1 40//1 38//1
f 43//6 44//6 45//6 47//6 49//6 51//6 41//6 42//6
f 44//3 43//3 38//3 37//3
f 49//3 50//3 52//3 51//3
f 46//5 45//5 44//5 37//5
f 47//5 48//5 50//5 49//5
f 48//4 47//4 45//4 46//4
f 53//2 54//2 56//2 55//2 68//2 66//2 64//2 62//2
f 55//4 56//4 58//4 57//4
f 55//5 57//5 67//5 68//5
f 59//1 58//1 56//1 54//1
f 59//6 60//6 61//6 63//6 65//6 67//6 57//6 58//6
f 60//3 59//3 54//3 53//3
f 65//3 66//3 68//3 67//3
f 62//5 61//5 60//5 53//5
f 63//5 64//5 66//5 65//5
f 64//4 63//4 61//4 62//4
f 69//2 70//2 72//2 71//2 84//2 82//2 80//2 78//2
f 71//4 72//4 74//4 73//4
f 71//5 73//5 83//5 84//5
f 75//1 74//1 72//1 70//1
f 75//6 76//6 77//6 79//6 81//6 83//6 73//6 74//6
f 76//3 75//3 70//3 69//3
f 81//3 82//3 84//3 83//3
f 78//5 77//5 76//5 69//5
f 79//5 80//5 82//5 81//5
f 80//4 79//4 77//4 78//4
