# Blender v2.79 (sub 0) OBJ File: 'recup objets.blend'
# www.blender.org
# mtllib exports obj.mtl
o Cube.14135_Cube.14152
v -0.652237 5.204287 -0.126235
v -0.652235 -0.779246 -0.126236
v -0.649168 5.204287 -0.159247
v -0.649166 -0.779246 -0.159247
v -0.639719 5.204287 -0.191025
v -0.639716 -0.779246 -0.191026
v -0.624250 5.204288 -0.220350
v -0.624248 -0.779246 -0.220351
v -0.603359 5.204287 -0.246093
v -0.603356 -0.779246 -0.246094
v -0.577846 5.204287 -0.267266
v -0.577844 -0.779246 -0.267267
v -0.548693 5.204287 -0.283055
v -0.548691 -0.779246 -0.283056
v -0.517020 5.204287 -0.292853
v -0.517018 -0.779246 -0.292854
v -0.484044 5.204287 -0.296284
v -0.484042 -0.779246 -0.296284
v -0.451032 5.204287 -0.293215
v -0.451030 -0.779246 -0.293216
v -0.419254 5.204287 -0.283765
v -0.419251 -0.779246 -0.283766
v -0.389929 5.204287 -0.268297
v -0.389927 -0.779246 -0.268298
v -0.364186 5.204287 -0.247406
v -0.364183 -0.779246 -0.247406
v -0.343013 5.204287 -0.221893
v -0.343010 -0.779246 -0.221894
v -0.327224 5.204287 -0.192740
v -0.327221 -0.779246 -0.192740
v -0.317426 5.204287 -0.161067
v -0.317423 -0.779246 -0.161067
v -0.313995 5.204287 -0.128091
v -0.313993 -0.779246 -0.128091
v -0.317064 5.204287 -0.095079
v -0.317061 -0.779246 -0.095080
v -0.326514 5.204287 -0.063300
v -0.326511 -0.779246 -0.063301
v -0.341982 5.204287 -0.033976
v -0.341979 -0.779246 -0.033976
v -0.362873 5.204287 -0.008232
v -0.362871 -0.779246 -0.008233
v -0.388386 5.204288 0.012941
v -0.388384 -0.779246 0.012940
v -0.417539 5.204287 0.028730
v -0.417537 -0.779246 0.028729
v -0.449212 5.204287 0.038528
v -0.449210 -0.779246 0.038527
v -0.482188 5.204287 0.041958
v -0.482186 -0.779246 0.041958
v -0.515200 5.204287 0.038889
v -0.515198 -0.779246 0.038889
v -0.546979 5.204287 0.029440
v -0.546976 -0.779246 0.029439
v -0.576303 5.204287 0.013971
v -0.576301 -0.779246 0.013971
v -0.602047 5.204287 -0.006920
v -0.602044 -0.779246 -0.006921
v -0.623220 5.204287 -0.032433
v -0.623217 -0.779246 -0.032434
v -0.639008 5.204287 -0.061586
v -0.639006 -0.779246 -0.061587
v -0.648806 5.204287 -0.093259
v -0.648804 -0.779246 -0.093260
v -0.118558 2.123546 -0.866993
v -0.117488 2.036296 -0.867253
v -0.106313 2.032044 0.610661
v -0.107382 2.119294 0.610920
v 1.094167 2.138439 -0.876121
v 1.095236 2.051189 -0.876380
v 1.106412 2.046937 0.601533
v 1.105342 2.134187 0.601793
v 0.608065 2.402720 -1.052422
v 0.638412 -0.071914 -1.059786
v -0.873339 -0.090480 -1.048394
v -0.903668 2.384154 -1.041044
v 0.622007 2.397420 0.789760
v -0.889744 2.378854 0.801145
v 0.628860 1.726461 0.605517
v 0.652331 -0.077215 0.782411
v 0.626465 1.013885 -0.874614
v 0.637642 1.009633 0.603388
v 0.617684 1.730713 -0.872485
v -0.859409 -0.095780 0.793789
v -0.527970 1.716644 -0.863862
v -0.519183 0.999816 -0.865998
v -0.508012 0.995564 0.612011
v -0.516794 1.712391 0.614147
v -0.200160 3.885381 -0.792794
v -0.188790 2.957800 -0.795549
v -0.178729 2.953972 0.534884
v -0.190100 3.881553 0.537639
v -0.177230 3.885662 -0.792966
v -0.165859 2.958081 -0.795721
v -0.155798 2.954253 0.534711
v -0.167169 3.881834 0.537466
v -0.130516 4.069724 -1.050163
v -0.114761 2.784055 -1.053975
v -0.834559 2.775215 -1.048564
v -0.850319 4.060884 -1.044746
v -0.116573 4.064418 0.793735
v -0.836382 4.055580 0.799152
v -0.104863 2.951764 0.534836
v -0.116234 3.879416 0.537584
v -0.100823 2.778750 0.789923
v -0.114923 2.955592 -0.795606
v -0.126295 3.883243 -0.792844
v -0.820616 2.769910 0.795341
v -0.197621 3.882367 -0.792307
v -0.186243 2.954716 -0.795062
v -0.176188 2.950889 0.535372
v -0.187560 3.878541 0.538128
vn -0.0076 0.0029 -1.0000
vn 0.0123 -0.9999 -0.0030
vn 0.0076 -0.0029 1.0000
vn -0.0123 0.9999 0.0030
vn -0.9999 -0.0123 0.0075
vn 0.9999 0.0123 -0.0075
vn 0.9957 0.0000 0.0926
vn 0.9585 0.0000 0.2850
vn 0.8845 0.0000 0.4666
vn 0.7765 0.0000 0.6301
vn 0.6386 0.0000 0.7695
vn 0.4762 0.0000 0.8793
vn 0.2955 0.0000 0.9553
vn 0.1035 -0.0000 0.9946
vn -0.0926 -0.0000 0.9957
vn -0.2850 -0.0000 0.9585
vn -0.4666 -0.0000 0.8845
vn -0.6301 -0.0000 0.7765
vn -0.7695 -0.0000 0.6386
vn -0.8793 -0.0000 0.4762
vn -0.9553 -0.0000 0.2955
vn -0.9946 -0.0000 0.1035
vn -0.9957 -0.0000 -0.0926
vn -0.9585 -0.0000 -0.2850
vn -0.8845 -0.0000 -0.4666
vn -0.7765 -0.0000 -0.6301
vn -0.6386 -0.0000 -0.7695
vn -0.4762 -0.0000 -0.8793
vn -0.2955 -0.0000 -0.9553
vn -0.1035 0.0000 -0.9946
vn 0.0926 0.0000 -0.9957
vn 0.2850 0.0000 -0.9585
vn 0.4666 0.0000 -0.8845
vn 0.6301 0.0000 -0.7765
vn 0.7695 0.0000 -0.6386
vn 0.8793 0.0000 -0.4762
vn 0.0000 1.0000 -0.0000
vn 0.9946 0.0000 -0.1035
vn 0.9553 0.0000 -0.2955
vn -0.0000 -1.0000 -0.0000
vn -0.0122 0.9999 0.0030
usemtl usine.337580
s off
f 69//1 70//1 66//1 65//1
f 70//2 71//2 67//2 66//2
f 71//3 72//3 68//3 67//3
f 72//4 69//4 65//4 68//4
f 65//5 66//5 67//5 68//5
f 72//6 71//6 70//6 69//6
usemtl usine.337579
f 1//7 2//7 4//7 3//7
f 3//8 4//8 6//8 5//8
f 5//9 6//9 8//9 7//9
f 7//10 8//10 10//10 9//10
f 9//11 10//11 12//11 11//11
f 11//12 12//12 14//12 13//12
f 13//13 14//13 16//13 15//13
f 15//14 16//14 18//14 17//14
f 17//15 18//15 20//15 19//15
f 19//16 20//16 22//16 21//16
f 21//17 22//17 24//17 23//17
f 23//18 24//18 26//18 25//18
f 25//19 26//19 28//19 27//19
f 27//20 28//20 30//20 29//20
f 29//21 30//21 32//21 31//21
f 31//22 32//22 34//22 33//22
f 33//23 34//23 36//23 35//23
f 35//24 36//24 38//24 37//24
f 37//25 38//25 40//25 39//25
f 39//26 40//26 42//26 41//26
f 41//27 42//27 44//27 43//27
f 43//28 44//28 46//28 45//28
f 45//29 46//29 48//29 47//29
f 47//30 48//30 50//30 49//30
f 49//31 50//31 52//31 51//31
f 51//32 52//32 54//32 53//32
f 53//33 54//33 56//33 55//33
f 55//34 56//34 58//34 57//34
f 57//35 58//35 60//35 59//35
f 59//36 60//36 62//36 61//36
f 4//37 2//37 64//37 62//37 60//37 58//37 56//37 54//37 52//37 50//37 48//37 46//37 44//37 42//37 40//37 38//37 36//37 34//37 32//37 30//37 28//37 26//37 24//37 22//37 20//37 18//37 16//37 14//37 12//37 10//37 8//37 6//37
f 63//38 64//38 2//38 1//38
f 61//39 62//39 64//39 63//39
f 1//40 3//40 5//40 7//40 9//40 11//40 13//40 15//40 17//40 19//40 21//40 23//40 25//40 27//40 29//40 31//40 33//40 35//40 37//40 39//40 41//40 43//40 45//40 47//40 49//40 51//40 53//40 55//40 57//40 59//40 61//40 63//40
usemtl usine.337578
f 73//1 74//1 75//1 76//1
f 77//4 73//4 76//4 78//4
f 79//6 77//6 80//6 74//6 81//6 82//6
f 79//6 83//6 81//6 74//6 73//6 77//6
f 74//2 80//2 84//2 75//2
f 76//5 75//5 84//5 78//5
f 80//3 77//3 78//3 84//3
f 81//3 83//3 85//3 86//3
f 82//4 81//4 86//4 87//4
f 85//6 88//6 87//6 86//6
f 83//2 79//2 88//2 85//2
f 79//1 82//1 87//1 88//1
usemtl vert_charte.1718
f 93//1 94//1 90//1 89//1
f 94//2 95//2 91//2 90//2
f 95//3 96//3 92//3 91//3
f 96//4 93//4 89//4 92//4
f 89//5 90//5 91//5 92//5
f 96//6 95//6 94//6 93//6
usemtl usine.337577
f 97//1 98//1 99//1 100//1
f 101//4 97//4 100//4 102//4
f 103//6 104//6 101//6 105//6 98//6 106//6
f 106//6 98//6 97//6 101//6 104//6 107//6
f 98//2 105//2 108//2 99//2
f 100//5 99//5 108//5 102//5
f 105//3 101//3 102//3 108//3
f 106//3 107//3 109//3 110//3
f 103//41 106//41 110//41 111//41
f 109//6 112//6 111//6 110//6
f 107//2 104//2 112//2 109//2
f 104//1 103//1 111//1 112//1
