# Blender v2.79 (sub 0) OBJ File: 'recup objets.blend'
# www.blender.org
# mtllib railConditionnement.mtl
o rail.013_Cube.14187
v 1.220448 0.027658 0.589386
v 1.221143 0.027658 -0.295335
v 1.278793 0.027658 -0.295290
v 1.278099 0.027658 0.589431
v 1.220448 0.119209 0.589386
v 1.221143 0.119209 -0.295335
v 1.278793 0.119209 -0.295290
v 1.278099 0.119209 0.589431
v 5.083086 0.027658 0.594425
v 5.083781 0.027658 -0.290296
v 5.141432 0.027658 -0.290251
v 5.140737 0.027658 0.594470
v 5.083086 0.119210 0.594425
v 5.083781 0.119210 -0.290296
v 5.141432 0.119210 -0.290251
v 5.140737 0.119210 0.594470
v 2.999931 0.027658 0.591704
v 3.000625 0.027658 -0.293017
v 3.058276 0.027658 -0.292972
v 3.057582 0.027658 0.591749
v 2.999931 0.119209 0.591704
v 3.000625 0.119209 -0.293017
v 3.058276 0.119209 -0.292972
v 3.057582 0.119209 0.591749
v -1.125774 0.027658 0.586326
v -1.125079 0.027658 -0.298395
v -1.067428 0.027658 -0.298350
v -1.068123 0.027658 0.586371
v -1.125774 0.119209 0.586326
v -1.125079 0.119209 -0.298395
v -1.067428 0.119209 -0.298350
v -1.068123 0.119209 0.586371
v -3.208957 0.027658 0.583608
v -3.208263 0.027658 -0.301113
v -3.150612 0.027658 -0.301067
v -3.151306 0.027658 0.583654
v -3.208957 0.119209 0.583608
v -3.208263 0.119209 -0.301113
v -3.150612 0.119209 -0.301067
v -3.151306 0.119209 0.583654
v -4.174030 0.027657 0.535983
v 5.200090 0.027658 0.548209
v 5.200015 0.027658 0.605860
v -4.174106 0.027657 0.593634
v -4.174030 0.119209 0.535983
v 5.200090 0.119209 0.548209
v 5.200015 0.119209 0.605860
v -4.174106 0.119209 0.593634
v -4.172907 0.027658 -0.324893
v 5.199040 0.027658 -0.312668
v 5.198965 0.027658 -0.255017
v -4.172983 0.027658 -0.267242
v -4.172907 0.119210 -0.324893
v 5.199040 0.119210 -0.312668
v 5.198965 0.119210 -0.255017
v -4.172983 0.119210 -0.267242
vn -1.0000 0.0000 -0.0008
vn 0.0008 0.0000 -1.0000
vn 1.0000 0.0000 0.0008
vn -0.0008 0.0000 1.0000
vn 0.0000 -1.0000 0.0000
vn -0.0000 1.0000 -0.0000
vn 0.0013 0.0000 -1.0000
vn 1.0000 0.0000 0.0013
vn -0.0013 0.0000 1.0000
vn -1.0000 0.0000 -0.0013
usemtl camion_bleu.1273
s off
f 5//1 6//1 2//1 1//1
f 6//2 7//2 3//2 2//2
f 7//3 8//3 4//3 3//3
f 8//4 5//4 1//4 4//4
f 1//5 2//5 3//5 4//5
f 8//6 7//6 6//6 5//6
f 13//1 14//1 10//1 9//1
f 14//2 15//2 11//2 10//2
f 15//3 16//3 12//3 11//3
f 16//4 13//4 9//4 12//4
f 9//5 10//5 11//5 12//5
f 16//6 15//6 14//6 13//6
f 21//1 22//1 18//1 17//1
f 22//2 23//2 19//2 18//2
f 23//3 24//3 20//3 19//3
f 24//4 21//4 17//4 20//4
f 17//5 18//5 19//5 20//5
f 24//6 23//6 22//6 21//6
f 29//1 30//1 26//1 25//1
f 30//2 31//2 27//2 26//2
f 31//3 32//3 28//3 27//3
f 32//4 29//4 25//4 28//4
f 25//5 26//5 27//5 28//5
f 32//6 31//6 30//6 29//6
f 37//1 38//1 34//1 33//1
f 38//2 39//2 35//2 34//2
f 39//3 40//3 36//3 35//3
f 40//4 37//4 33//4 36//4
f 33//5 34//5 35//5 36//5
f 40//6 39//6 38//6 37//6
f 45//7 46//7 42//7 41//7
f 46//8 47//8 43//8 42//8
f 47//9 48//9 44//9 43//9
f 48//10 45//10 41//10 44//10
f 41//5 42//5 43//5 44//5
f 48//6 47//6 46//6 45//6
f 53//7 54//7 50//7 49//7
f 54//8 55//8 51//8 50//8
f 55//9 56//9 52//9 51//9
f 56//10 53//10 49//10 52//10
f 49//5 50//5 51//5 52//5
f 56//6 55//6 54//6 53//6
